<?xml version="1.0" encoding="utf-8"?>
<!-- Generator: Adobe Illustrator 22.1.0, SVG Export Plug-In . SVG Version: 6.00 Build 0)  -->
<svg version="1.1" id="图层_1" xmlns="http://www.w3.org/2000/svg" xmlns:xlink="http://www.w3.org/1999/xlink" x="0px" y="0px"
	 viewBox="0 0 1024 1024" style="enable-background:new 0 0 1024 1024;" xml:space="preserve">
<style type="text/css">
	.st0{fill:#F5BE42;}
	.st1{fill:#28A896;}
	.st2{fill:#4C4B4C;}
	.st3{fill:#DD4C43;}
</style>
<polygon class="st0" points="984,481.5 984,662 512.8,190.8 603,100.6 "/>
<path class="st0" d="M988.9,673.9L505.8,190.8L603,93.6l385.9,385.9V673.9z M519.8,190.8L979,650V483.6l-376-376L519.8,190.8z"/>
<polygon class="st1" points="512.4,10.3 692.9,10.3 221.7,481.4 131.5,391.2 "/>
<path class="st1" d="M221.7,488.5l-97.3-97.2L510.4,5.3h194.5L221.7,488.5z M138.5,391.2l83.3,83.2L680.9,15.2H514.5L138.5,391.2z"
	/>
<g>
	<polygon class="st2" points="40,480.2 40,299.7 511.2,770.9 421,861.1 	"/>
</g>
<g>
	<path class="st2" d="M421,868.1L35.1,482.2V287.7l483.1,483.1L421,868.1z M45,478.1l376,376l83.2-83.3L45,311.7V478.1z"/>
</g>
<g>
	<path class="st3" d="M629.4,823.6l-190.1,190.1H268l166.3-166.2L540,741.7c36.5-36.5,36.5-95.5,0-132l-88.1-88.1l-57.7,57.7V365.5
		h213.9l-65.9,65.9l99.1,99.2C713.7,615.6,709.7,743.3,629.4,823.6z"/>
</g>
<g>
	<path class="st3" d="M441.4,1018.7H256l280.4-280.4c16.7-16.7,25.9-38.9,25.9-62.5c0-23.6-9.2-45.8-25.9-62.5l-84.6-84.6
		l-62.6,62.6V360.6h230.8l-70.9,70.9l95.6,95.7c74.4,87.3,69.1,219-11.9,300L441.4,1018.7z M279.9,1008.8h157.4l188.6-188.6
		c77.4-77.4,82.5-203.1,11.6-286.3L535.2,431.4l61-61H399.2v196.9l52.7-52.7l91.6,91.6c18.6,18.6,28.8,43.3,28.8,69.5
		c0,26.3-10.2,50.9-28.8,69.5L279.9,1008.8z"/>
</g>
</svg>
