<?xml version="1.0" encoding="utf-8"?>
<!-- Generator: Adobe Illustrator 22.1.0, SVG Export Plug-In . SVG Version: 6.00 Build 0)  -->
<svg version="1.1" id="隔离模式" xmlns="http://www.w3.org/2000/svg" xmlns:xlink="http://www.w3.org/1999/xlink" x="0px"
	 y="0px" viewBox="0 0 785 785" style="enable-background:new 0 0 785 785;" xml:space="preserve">
<style type="text/css">
	.st0{fill:#FFC339;}
	.st1{fill:#1FB19E;}
	.st2{fill:#4C4C4C;}
	.st3{opacity:0.15;}
	.st4{fill:url(#SVGID_1_);}
	.st5{fill:#EB4C44;}
	.st6{enable-background:new    ;}
</style>
<g>
	<g>
		<polygon class="st0" points="197,351.9 197,375.5 135.8,314 147.5,302.2 		"/>
		<path class="st0" d="M184.8,338.8l-36.9-37l-0.5-0.5L134.8,314l0.5,0.5l36.9,37l25.5,25.6v-25.4L184.8,338.8z M196.4,373.9
			l-23.3-23.4L136.7,314l10.8-10.9l36.5,36.6l12.4,12.5V373.9z"/>
	</g>
	<polygon class="st1" points="135.7,290.4 159.2,290.4 97.9,351.9 86.2,340.1 	"/>
	<path class="st1" d="M97.9,352.8l-12.6-12.7l50.2-50.3h25.3L97.9,352.8z M87.1,340.1L97.9,351l59.7-59.9H136L87.1,340.1z"/>
	<g>
		<polygon class="st2" points="74.3,351.7 74.3,328.2 135.5,389.7 123.8,401.4 		"/>
	</g>
	<g class="st3">
		
			<linearGradient id="SVGID_1_" gradientUnits="userSpaceOnUse" x1="73.6" y1="421.5" x2="136.4" y2="421.5" gradientTransform="matrix(1 0 0 -1 0 786)">
			<stop  offset="0" style="stop-color:#FFFFFF;stop-opacity:0"/>
			<stop  offset="1" style="stop-color:#000000"/>
		</linearGradient>
		<path class="st4" d="M123.8,402.4L73.6,352v-25.4l62.8,63L123.8,402.4z M74.9,351.5l48.9,49.1l10.8-10.9l-59.7-59.9
			C74.9,329.8,74.9,351.5,74.9,351.5z"/>
	</g>
	<g>
		<path class="st5" d="M150.9,396.5l-24.7,24.8h-22.3l21.6-21.7l13.7-13.8c4.7-4.8,4.7-12.5,0-17.2l-11.4-11.5l-7.5,7.5v-27.9h27.8
			l-8.6,8.6l12.9,12.9C161.9,369.4,161.3,386.1,150.9,396.5z"/>
	</g>
	<g>
		<path class="st5" d="M126.5,422h-24.1l36.5-36.6c2.2-2.2,3.4-5.1,3.4-8.2s-1.2-6-3.4-8.2l-11-11l-8.1,8.2v-30.1h30l-9.2,9.2
			l12.4,12.5c9.7,11.4,9,28.6-1.5,39.1L126.5,422z M105.5,420.7H126l24.5-24.6c10.1-10.1,10.7-26.5,1.5-37.3l-13.3-13.4l7.9-8H121
			v25.7l6.9-6.9l11.9,11.9c2.4,2.4,3.7,5.6,3.7,9.1c0,3.4-1.3,6.6-3.7,9.1L105.5,420.7z"/>
	</g>
</g>
<g class="st6">
	<path class="st2" d="M285.5,319.2c4,4.6,7.5,9.5,10.5,14.9c0.5,0.5-1.2,0.9-5.2,1.2c-8,0.3-16.1,0.8-24.1,1.6v20.5h39v12.9h-39
		v43.1h-14.1v-43.1h-38.6v-12.9h38.6v-19.3c-7.8,0.3-16.5,0.7-26.2,1.2c-1.3-5.1-3.1-9.1-5.2-12.1
		C245.5,328.4,267,325.7,285.5,319.2z"/>
	<path class="st2" d="M318.9,367.1c16.9-4,27.2-8.4,31-13.3H337v-10.1h51.5v10.1h-17.3c-3.2,2.4-5.8,4.3-7.6,5.6
		c3.2,2.7,5.8,5.2,7.6,7.6c5.1-2.1,11-6.2,17.7-12.1c5.4,3,9.5,5.5,12.5,7.6c1.1,1.1,0.8,2-0.8,2.8c-0.8,0.3-2.2,0.9-4,2
		c-4.6,1.9-7.9,3.5-10.1,4.8c2.7,9.4,10.9,17.4,24.5,24.1c-4.3,2.7-7.9,6.6-10.9,11.7c-12.1-6.7-19.6-17-22.5-31l-1.6,1.2
		c0.8,4.6,1.1,10.7,0.8,18.5c0,4.8-1.3,8.7-4,11.7c-2.7,2.9-8.2,4.6-16.5,4.8c-0.5-4.6-1.7-8.3-3.6-11.3h5.6c4.6,0.3,6.7-1.7,6.4-6
		c0-2.7-0.1-5-0.4-6.8c-11,8.6-23.7,15.7-38.2,21.3c-1.9-4.6-4.7-7.9-8.4-10.1c16.4-4.6,31.2-12.5,44.7-23.7
		c-0.3-0.8-0.7-1.6-1.2-2.4c-10.5,7.2-21.7,13.3-33.8,18.1c-2.1-4-4.4-7.2-6.8-9.7c13.4-3.5,24.8-8.9,34.2-16.1
		c-0.3-0.5-0.7-0.9-1.2-1.2c-7,3.5-16.2,7.2-27.8,11.3l-0.8-1.2C322.8,372.1,320.8,369.3,318.9,367.1z M356.3,328.5
		c-0.3-1.9-0.7-4.2-1.2-6.8l-0.4-2l16.5-0.8c0.3,0,0.4,3.2,0.4,9.7h35v20.9h-14.1V339h-58.7v10.5h-12.9v-20.9H356.3z"/>
	<path class="st2" d="M489.1,338.6l-20.9,64h-13.3l-19.7-64l-0.4,0.4v63.6h-14.9v-74.4H446l15.7,54.3h0.4l16.9-54.3H504v74.4h-14.9
		V339V338.6z"/>
	<path class="st2" d="M533.4,328.1v74.4h-16.1v-74.4H533.4z"/>
	<path class="st2" d="M601.4,349.4h-15.3c-0.3-7.5-4.3-11.3-12.1-11.3c-7.8,0.5-11.8,3.8-12.1,9.7c0,4.8,3.9,8.2,11.7,10.1
		c0.8,0.3,1.5,0.4,2,0.4c0.3,0,0.9,0.1,2,0.4c17.4,3.5,26,10.3,25.8,20.5c-0.3,15.6-10.9,23.6-31.8,24.1c-19.3,0-28.8-8.2-28.6-24.5
		h16.1c0,8.6,4.2,13.1,12.5,13.7c9.7-0.3,14.6-3.5,14.9-9.7c0-5.1-4.7-8.6-14.1-10.5c-1.3-0.3-2.3-0.5-2.8-0.8
		C553.2,367.8,545,361,545,351c0.8-15.3,11.1-23.5,31-24.5C592.1,327.3,600.5,334.9,601.4,349.4z"/>
</g>
<rect x="623.5" y="370.5" class="st2" width="3" height="30"/>
<path class="st2" d="M647.2,399.8h14.5v-5.5h-12.3V392h12.3v-4.4h2.7v4.4h12.1v2.3h-12.1v5.5h14.4v2.3h-31.5V399.8z M668.5,378.4
	c3.3,2.8,6.3,5.5,9,8.2l-2.1,1.9c-0.7-0.7-1.4-1.5-2.2-2.3c-7.5,0.2-14.2,0.5-19.9,1c-0.6,0.1-1.5,0.2-2.6,0.5l-1.3-2.8
	c1.2-0.4,2.2-0.9,3-1.5c2.2-1.8,4.4-4.1,6.7-6.8h-11v-2.3h30.1v2.3h-15.5c-2.5,2.8-5.2,5.4-8,8.1c5-0.2,10.5-0.4,16.4-0.6
	c-1.3-1.3-2.7-2.6-4.2-3.9L668.5,378.4z"/>
<path class="st2" d="M680.7,383.4c1.8-0.2,3.7-0.5,5.6-0.7v-3.9h-5.4v-2.3h5.4v-4.1h2.4v4.1h5.2v2.3h-5.2v3.5
	c1.6-0.2,3.2-0.5,4.9-0.7c0,0.9,0,1.7,0.1,2.4c-1.7,0.2-3.3,0.4-5,0.7v2.6c0,2.9-1.2,4.3-3.8,4.2c-0.7,0-1.6,0-2.8-0.1
	c-0.1-0.7-0.2-1.6-0.4-2.6c1.1,0.2,1.9,0.3,2.7,0.3c1.3,0,1.9-0.7,1.9-2.1v-2c-1.7,0.3-3.4,0.6-5.1,0.9L680.7,383.4z M684.6,392.5
	h22.8v11.8H705v-2h-17.9v2h-2.5V392.5z M705,394.7h-17.9v5.6H705V394.7z M709.9,373.7l0.6,2.4c-4.3,0.5-8.5,0.8-12.6,1
	c0,2.1,0,3.6,0,4.5h13.9v2.3h-4.5v7.7h-2.4v-7.7h-7.1c-0.5,3.4-1.9,6-4.1,7.8c-0.6-0.5-1.3-1-2.2-1.7c2.8-2,4.2-5.4,4.1-10.1v-5.2
	C700.4,374.7,705.2,374.3,709.9,373.7z"/>
<path class="st2" d="M716.8,381.8h11.4c-0.4-0.7-0.9-1.5-1.4-2.3l2.1-1c0.7,1.1,1.3,2.2,2,3.3h11.5v7.1H740v-0.8h-20.9
	c-0.1,2.6-0.3,4.7-0.7,6.3c-0.6,2.6-1.8,5.3-3.7,8.2c-0.5-0.7-1.1-1.4-1.7-2.2c1.5-2.2,2.6-4.5,3.1-6.7c0.5-1.8,0.7-4.4,0.7-7.7
	V381.8z M719.4,372.2h2.7c-0.5,1-1,1.9-1.5,2.8h9.1v2h-10.4c-1.4,1.9-2.9,3.6-4.5,5c-0.4-0.5-1-1.1-1.7-1.8
	C715.8,378,717.9,375.3,719.4,372.2z M740,383.7h-20.9v2.4H740V383.7z M721.9,404.1h-2.3v-13.6h23.4v10c0,2.2-1.1,3.3-3.4,3.3h-2.7
	c-0.1-0.8-0.3-1.6-0.5-2.4c1.4,0.1,2.4,0.1,2.9,0.1c0.9,0,1.4-0.5,1.4-1.5v-2.1h-4.9v5h-2.3v-5h-4.7v5h-2.3v-5h-4.7V404.1z
	 M722.8,381.5c-0.5-0.8-1.4-1.8-2.5-3.2l1.7-1.2c0.8,0.8,1.7,1.8,2.7,3L722.8,381.5z M721.9,396h4.7v-3.5h-4.7V396z M728.8,396h4.7
	v-3.5h-4.7V396z M733.3,372.2h2.6c-0.4,1-0.9,1.9-1.4,2.8h10v2h-11.2c-0.6,0.9-1.3,1.8-2,2.6c-0.5-0.4-1.1-0.9-1.9-1.5
	C731.2,376.4,732.4,374.4,733.3,372.2z M737,381.6c-0.6-0.9-1.4-1.9-2.6-3.3l1.7-1.2c1.1,1.2,2.1,2.2,2.8,3L737,381.6z M740.6,392.4
	h-4.9v3.5h4.9V392.4z"/>
</svg>
