<?xml version="1.0" standalone="no"?><!DOCTYPE svg PUBLIC "-//W3C//DTD SVG 1.1//EN" "http://www.w3.org/Graphics/SVG/1.1/DTD/svg11.dtd"><svg t="1548727153822" class="icon" style="" viewBox="0 0 1024 1024" version="1.1" xmlns="http://www.w3.org/2000/svg" p-id="665" xmlns:xlink="http://www.w3.org/1999/xlink" width="200" height="200"><defs><style type="text/css"></style></defs><path d="M511.931779 1023.897627c-282.719275 0-511.931752-229.212477-511.931752-511.897627C0.000027 229.246601 229.212504 0.034124 511.931779 0.034124S1023.86353 229.246601 1023.86353 512c0 282.719275-229.212477 511.897627-511.931751 511.897627z m0-955.580911c-245.046121 0-443.683284 198.637163-443.683285 443.683284 0 245.011997 198.637163 443.64916 443.683285 443.64916 245.046121 0 443.683284-198.637163 443.683284-443.64916 0-245.046121-198.637163-443.683284-443.683284-443.683284z m0 750.83551a68.248467 68.248467 0 1 1 0-136.496934 68.248467 68.248467 0 0 1 0 136.496934z m0-204.779525c-18.836577 0-34.124234-30.541189-34.124234-68.248467l-34.124233-307.186351a68.248467 68.248467 0 1 1 136.496934 0l-34.124234 307.186351c0 37.707278-15.287657 68.248467-34.124233 68.248467z" fill="#ffa05b" p-id="666"></path></svg>